<svg xmlns="http://www.w3.org/2000/svg" width="609" height="249" viewBox="0 0 609 249"><defs><clipPath id="a"><path fill="none" d="M12.95 0H3.39A3.372 3.372 0 0 0 0 3.345v17.291a3.372 3.372 0 0 0 3.39 3.345h13.882a3.372 3.372 0 0 0 3.39-3.345V8.194a3 3 0 0 0-.782-2.013l-4.712-5.2A3 3 0 0 0 12.95 0Zm1.776 2.883 3.322 3.663h-1.822a1.5 1.5 0 0 1-1.5-1.5V2.883Zm2.546 19.5H3.39a1.765 1.765 0 0 1-1.775-1.752V3.34A1.765 1.765 0 0 1 3.39 1.594h9.72V6.64a1.5 1.5 0 0 0 1.5 1.5h4.436v12.5a1.765 1.765 0 0 1-1.774 1.748Z"/></clipPath><clipPath id="b"><path fill="none" d="M0 24h21V0H0Z"/></clipPath><clipPath id="c"><path fill="none" d="M0 24h25.412V0H0Z"/></clipPath><clipPath id="e"><path fill="#618d3d" d="M.735 0h8.373a.736.736 0 0 1 .736.736.736.736 0 0 1-.736.736H.735A.736.736 0 0 1-.001.736.736.736 0 0 1 .735 0Z"/></clipPath><clipPath id="f"><path fill="#618d3d" d="M0 22.154h19.385V0H0Z"/></clipPath><clipPath id="g"><path fill="none" d="M16 3.84V3.2A3.2 3.2 0 0 0 12.8 0H3.2A3.2 3.2 0 0 0 0 3.2v17.6A3.2 3.2 0 0 0 3.2 24h9.6a3.2 3.2 0 0 0 3.2-3.2v-.119a.96.96 0 0 0-.96-.96.96.96 0 0 0-.96.96v.119a1.28 1.28 0 0 1-1.28 1.28H3.2a1.28 1.28 0 0 1-1.28-1.28V3.2A1.28 1.28 0 0 1 3.2 1.92h9.6a1.28 1.28 0 0 1 1.28 1.28v.64a.96.96 0 0 0 .96.96.96.96 0 0 0 .96-.96Zm0-.64A3.2 3.2 0 0 0 12.8 0H3.2A3.2 3.2 0 0 0 0 3.2v17.6A3.2 3.2 0 0 0 3.2 24h9.6a3.2 3.2 0 0 0 3.2-3.2v-.119a.96.96 0 0 0-.96-.96.96.96 0 0 0-.96.96v.119a1.28 1.28 0 0 1-1.28 1.28H3.2a1.28 1.28 0 0 1-1.28-1.28V3.2A1.28 1.28 0 0 1 3.2 1.92h9.6a1.28 1.28 0 0 1 1.28 1.28v.64a.96.96 0 0 0 .96.96.96.96 0 0 0 .96-.96V3.2Z"/></clipPath><clipPath id="h"><path fill="none" d="M0 24h25.6V0H0Z"/></clipPath><clipPath id="i"><path fill="none" d="M0 24h22.75V0H0Z"/></clipPath><clipPath id="j"><circle cx="15" cy="15" r="15" fill="#6c27b3"/></clipPath><linearGradient id="k" x1=".084" x2=".916" y1=".916" y2=".084" gradientUnits="objectBoundingBox"><stop offset="0" stop-color="#ffd600"/><stop offset=".5" stop-color="#ff0100"/><stop offset="1" stop-color="#d800b9"/></linearGradient></defs><path fill="none" d="M0 0h609v249H0z"/><path fill="none" d="M304 102h32v32h-32z"/><path fill="#618d3d" d="M319.633 122.088a1.258 1.258 0 0 0 0 2.516 1.258 1.258 0 1 0 0-2.516ZM319.845 112.561c-2.206 0-3.219 1.307-3.219 2.189a.937.937 0 0 0 .98.931c.882 0 .523-1.258 2.189-1.258.817 0 1.471.359 1.471 1.111 0 .882-.915 1.389-1.454 1.846a2.991 2.991 0 0 0-1.095 2.484c0 .85.229 1.095.9 1.095.8 0 .964-.359.964-.67a2.052 2.052 0 0 1 .915-2.042 4.182 4.182 0 0 0 1.83-2.99c-.001-1.534-1.39-2.696-3.481-2.696Z"/><path fill="#323232" d="M320 106a11.993 11.993 0 0 0-12 12v11.063a.937.937 0 0 0 .938.937H320a12 12 0 0 0 0-24Zm0 22.125h-10.125V118A10.125 10.125 0 1 1 320 128.125Z"/><path fill="none" d="M352 102h32v32h-32z"/><g stroke-width=".7"><path fill="#618d3d" stroke="#618d3d" d="M362.158 113.728h8.469a.488.488 0 0 0 0-.955h-8.469a.488.488 0 0 0 0 .955ZM367.978 118.5h-5.727a.477.477 0 1 0 0 .955h5.727a.477.477 0 1 0 0-.955ZM369.212 115.712h-6.932a.486.486 0 1 0 0 .955h6.932a.486.486 0 1 0 0-.955Z"/><path fill="#323232" stroke="#323232" d="M378.082 109.909c-.028 0-.054.007-.082.008v-.008a1.911 1.911 0 0 0-1.909-1.909h-17.182a1.911 1.911 0 0 0-1.909 1.909v18.614a.477.477 0 0 0 .295.441.472.472 0 0 0 .183.036.477.477 0 0 0 .337-.14l4.633-4.633h13.643a1.911 1.911 0 0 0 1.909-1.909v-7.916l1.374-1.374a1.827 1.827 0 0 0-1.292-3.119Zm-1.037 12.409a.955.955 0 0 1-.955.955h-13.84a.477.477 0 0 0-.337.14l-3.958 3.954v-17.458a.955.955 0 0 1 .955-.955h17.181a.955.955 0 0 1 .955.955v.326a1.8 1.8 0 0 0-.255.209l-5.191 5.192c-.216.276-.547.413-.766.955l-.458 2.293a.477.477 0 0 0 .468.571.487.487 0 0 0 .093-.009l2.383-.479a.474.474 0 0 0 .244-.131l3.482-3.481Zm-4.054-4.258-1.541.307.309-1.544 4.332-4.333 1.234 1.234Zm5.709-5.707-.7.7-1.234-1.234.7-.7a.873.873 0 0 1 1.234 1.234Z"/></g><path fill="none" d="M400 102h32v32h-32z"/><g style="isolation:isolate"><g clip-path="url(#a)" transform="translate(406.18 106.009)"><g clip-path="url(#b)" transform="translate(-.18 -.009)"><path fill="#323232" d="M-7.32-7.491h35.662V31.49H-7.32Z"/></g></g><path fill="#618d3d" stroke="#618d3d" stroke-width=".7" d="M412.159 119.727h8.469a.488.488 0 0 0 0-.955h-8.469a.488.488 0 0 0 0 .955ZM412.159 115.727h4.469a.488.488 0 0 0 0-.955h-4.469a.488.488 0 0 0 0 .955ZM412.159 123.727h8.469a.488.488 0 0 0 0-.955h-8.469a.488.488 0 0 0 0 .955Z"/><path fill="none" d="M406 106h21v24h-21z"/></g><g fill="none"><path d="M447 102h32v32h-32z"/><g stroke="#262b26" stroke-linecap="round" stroke-miterlimit="10" stroke-width="1.8"><path d="M454.533 118.035h18M453.468 118.034l6.68-7.642M453.533 118.135l6.741 7.587"/></g></g><g fill="none"><path d="M488 102h32v32h-32z"/><g stroke="#262b26" stroke-linecap="round" stroke-miterlimit="10" stroke-width="1.8"><path d="m500.598 118.034 6.68-7.642M500.663 118.135l6.741 7.587"/></g></g><g fill="none"><path d="M523 102h32v32h-32z"/><g stroke="#262b26" stroke-linecap="round" stroke-miterlimit="10" stroke-width="1.8"><path stroke-width="1.8002520000000002" d="m542.402 118.034-6.678-7.646"/><path d="m542.337 118.134-6.741 7.587"/></g></g><path fill="none" d="M256 102h32v32h-32z"/><g stroke-width=".5"><path fill="#618d3d" stroke="#618d3d" d="M277.493 120.688h-2.5a1.243 1.243 0 0 0-1.242 1.242v1.92a1.243 1.243 0 0 0 1.242 1.242h2.5a1.243 1.243 0 0 0 1.242-1.242v-1.92a1.243 1.243 0 0 0-1.242-1.242Zm.339 3.162a.34.34 0 0 1-.339.339h-2.5a.34.34 0 0 1-.339-.339v-1.92a.34.34 0 0 1 .339-.339h2.5a.34.34 0 0 1 .339.339Z"/><path fill="#323232" stroke="#323232" d="M284.017 114.306a.559.559 0 0 0-.08-.3l-3.651-6.42a.605.605 0 0 0-.522-.306h-16.046a.6.6 0 0 0-.522.306l-3.646 6.424a.608.608 0 0 0-.08.3 3.521 3.521 0 0 0 2.107 3.22v10.585a.6.6 0 0 0 .6.6h19.127a.6.6 0 0 0 .6-.6v-10.514a.265.265 0 0 0-.005-.065 3.531 3.531 0 0 0 2.118-3.23Zm-19.947-5.813h15.343l2.857 5.021h-21.049Zm12.87 6.22a2.313 2.313 0 0 1-4.554 0Zm-5.833 0a2.316 2.316 0 0 1-4.559 0Zm-10.393 0h4.556a2.316 2.316 0 0 1-4.559 0Zm8.868 12.8h-3.461v-6.5a.857.857 0 0 1 .858-.858h1.75a.857.857 0 0 1 .858.858v6.5Zm11.12 0h-9.916v-6.5a2.065 2.065 0 0 0-2.061-2.061h-1.755a2.065 2.065 0 0 0-2.061 2.061v6.5h-2.129v-9.7c.07.005.14.005.211.005a3.517 3.517 0 0 0 2.919-1.546 3.518 3.518 0 0 0 5.838 0 3.508 3.508 0 0 0 5.828 0 3.517 3.517 0 0 0 2.919 1.555c.07 0 .135-.005.206-.005v9.69Zm-.206-10.889a2.312 2.312 0 0 1-2.277-1.906h4.559a2.326 2.326 0 0 1-2.282 1.905Z"/></g><path fill="none" d="M214 102h32v32h-32z"/><g transform="translate(-9080 6645)"><path fill="#323232" stroke="#323232" stroke-width=".7" d="M9318.569-6532.148h-2.769a3.493 3.493 0 0 0 .2-1.146 3.454 3.454 0 0 0-3.45-3.45 3.5 3.5 0 0 0-2.5 1.08 3.54 3.54 0 0 0-1.1-2.347 3.814 3.814 0 0 0-2.63-.989 3.886 3.886 0 0 0-3.732 4.015 4.2 4.2 0 0 0 1.081 2.838h-2.942a2.73 2.73 0 0 0-2.727 2.727v3.967a.545.545 0 0 0 .545.545h.865v7.18a2.73 2.73 0 0 0 2.727 2.728h14.74a2.73 2.73 0 0 0 2.723-2.727v-7.181h1.147a.545.545 0 0 0 .545-.545v-3.967a2.73 2.73 0 0 0-2.723-2.728Zm-6.026-3.505a2.362 2.362 0 0 1 2.357 2.359 2.437 2.437 0 0 1-.291 1.146h-4.556v-.952a.545.545 0 0 0 .074-.245 2.492 2.492 0 0 1 2.416-2.308Zm-8.864.668a2.8 2.8 0 0 1 2.641-2.924 2.727 2.727 0 0 1 1.877.7 2.47 2.47 0 0 1 .764 1.861v3.2h-3.336v-.006a2.925 2.925 0 0 1-1.946-2.831Zm-4.588 5.565a1.638 1.638 0 0 1 1.636-1.637h8.234v5.057h-9.87Zm19.422 11.693a1.638 1.638 0 0 1-1.636 1.636h-14.74a1.638 1.638 0 0 1-1.637-1.636v-7.181h18.013Zm1.692-8.273h-10.152v-5.057h8.516a1.638 1.638 0 0 1 1.636 1.637Zm0 0"/><rect width="13" height="2" fill="#618d3d" rx="1" transform="translate(9303 -6520)"/></g><path fill="none" d="M243 33h32v32h-32z"/><g transform="translate(-4968 5742)"><path fill="#739518" d="M5230.889-5697.084a3.81 3.81 0 1 1-3.81-3.81 3.81 3.81 0 0 1 3.81 3.81Zm0 0"/><path fill="#4a4a4a" stroke="#4a4a4a" stroke-width=".7" d="M5227.424-5704.816a7.752 7.752 0 0 0-6.712 12.112l4.892 7.241a1.777 1.777 0 0 0 2.943 0l4.9-7.248a7.75 7.75 0 0 0-6.023-12.105Zm5.161 11.524-4.9 7.248a.738.738 0 0 1-1.224 0l-4.89-7.243a6.693 6.693 0 1 1 11.013-.007Zm0 0"/><rect width="16" height="1.5" fill="#4a4a4a" rx=".75" transform="translate(5219 -5683)"/></g><path fill="none" d="M294 44h10v10h-10z"/><path fill="#4a4a4a" d="M294.882 46.801a.194.194 0 0 0-.047.123.2.2 0 0 0 .057.134l3.735 4.058a.48.48 0 0 0 .633 0l3.734-4.058a.186.186 0 0 0 .01-.257.426.426 0 0 0-.326-.131h-7.469a.426.426 0 0 0-.327.131Z"/><path fill="none" d="M15 33h32v32H15z"/><path fill="#333" d="M41.082 60a.912.912 0 0 1-.649-.269l-5.288-5.285a9.279 9.279 0 1 1 1.3-1.3l5.289 5.288a.911.911 0 0 1 0 1.293.912.912 0 0 1-.652.273Zm-11.81-20.159a7.429 7.429 0 1 0 7.428 7.431 7.44 7.44 0 0 0-7.428-7.431Z"/><path fill="#618d3d" d="M29.835 41.986c1.131.717 3.387 1.489 2.792 4.621.09 1.729 1.771 1.4 1.893 0a4.481 4.481 0 0 0-2.663-4.352c-2.011-.845-1.924-.301-2.022-.269Z"/><path fill="none" d="M331 46h6v6h-6z"/><path fill="#4a4a4a" d="M331.53 47.68a.116.116 0 0 0-.028.074.119.119 0 0 0 .028.081l2.245 2.434a.288.288 0 0 0 .38 0l2.241-2.434a.112.112 0 0 0 .006-.155.256.256 0 0 0-.196-.078h-4.481a.256.256 0 0 0-.195.078Z"/><path fill="none" d="M148 33h32v32h-32z"/><g fill="none" stroke-miterlimit="10"><path d="M153.035 46.369A2 2 0 0 1 155.001 44h18.18a2 2 0 0 1 1.966 2.369l-2.25 12A2 2 0 0 1 170.931 60h-13.68a2 2 0 0 1-1.966-1.631Z"/><path fill="#333" d="M155 45.7a.292.292 0 0 0-.23.108.292.292 0 0 0-.064.247l2.25 12a.3.3 0 0 0 .295.245h13.68a.3.3 0 0 0 .295-.245l2.25-12a.292.292 0 0 0-.064-.247.292.292 0 0 0-.23-.108H155m0-1.7h18.18a2 2 0 0 1 1.966 2.369l-2.25 12A2 2 0 0 1 170.93 60h-13.68a2 2 0 0 1-1.966-1.631l-2.25-12A2 2 0 0 1 155.001 44Z"/></g><path fill="none" stroke="#333" stroke-linecap="round" stroke-miterlimit="10" stroke-width="1.7" d="M159.591 48v-4.5a4.5 4.5 0 0 1 9 0V48"/><path fill="#618d3d" d="M159.75 54h8.75a.75.75 0 0 1 0 1.5h-8.75a.75.75 0 0 1 0-1.5Z"/><path fill="none" d="M195 33h32v32h-32z"/><path fill="#333" stroke="#333" stroke-width=".3" d="M211.121 49.932h.159a4.586 4.586 0 0 0 3.5-1.516c1.913-2.157 1.6-5.855 1.561-6.207a5.07 5.07 0 0 0-2.407-4.509 5.526 5.526 0 0 0-2.674-.7h-.085a5.534 5.534 0 0 0-2.674.681 5.074 5.074 0 0 0-2.44 4.528c-.035.353-.353 4.051 1.561 6.207a4.568 4.568 0 0 0 3.499 1.516Zm-3.732-7.6v-.04c.164-3.563 2.694-3.946 3.777-3.946h.06c1.342.03 3.623.577 3.777 3.946a.1.1 0 0 0 0 .04c0 .035.353 3.414-1.228 5.194a3.257 3.257 0 0 1-2.56 1.064h-.05a3.247 3.247 0 0 1-2.555-1.064c-1.565-1.769-1.227-5.163-1.222-5.193Z"/><path fill="#333" stroke="#333" stroke-width=".3" d="M221.413 56.065v-.139c-.03-.984-.094-3.285-2.251-4.021l-.05-.015a14.34 14.34 0 0 1-4.125-1.879.671.671 0 1 0-.77 1.1 15.479 15.479 0 0 0 4.538 2.072c1.158.413 1.287 1.65 1.322 2.783a1 1 0 0 0 0 .124 9.023 9.023 0 0 1-.1 1.536 18.291 18.291 0 0 1-8.762 2.038 18.4 18.4 0 0 1-8.767-2.043 8.541 8.541 0 0 1-.1-1.536v-.124c.035-1.133.164-2.371 1.322-2.783a15.623 15.623 0 0 0 4.538-2.073.671.671 0 1 0-.77-1.1 14.185 14.185 0 0 1-4.125 1.879l-.05.015c-2.157.741-2.222 3.042-2.251 4.021a1 1 0 0 1 0 .124v.015a7.622 7.622 0 0 0 .253 2.251.638.638 0 0 0 .258.313 18.8 18.8 0 0 0 9.7 2.376 18.856 18.856 0 0 0 9.7-2.376.665.665 0 0 0 .258-.313 8 8 0 0 0 .232-2.245Z"/><path fill="#618d3d" d="M213.75 55h3.362a.75.75 0 0 1 0 1.5h-3.362a.75.75 0 0 1 0-1.5Z"/><path fill="none" d="M100 33h32v32h-32z"/><path fill="#618d3d" d="M109.585 41.899a1.7 1.7 0 1 1-1.7-1.7 1.7 1.7 0 0 1 1.7 1.7ZM125.354 45.646a3.208 3.208 0 1 1-3.208-3.208 3.208 3.208 0 0 1 3.208 3.208Zm0 0"/><g fill="#333" stroke="#333"><path stroke-width=".5" d="m108.618 47.751 2.468-3.652a3.885 3.885 0 0 0 .246-3.978 3.867 3.867 0 0 0-6.828-.139 3.92 3.92 0 0 0 .171 4.123l2.463 3.646a.9.9 0 0 0 1.48 0Zm-1.047-.292-2.464-3.647a3.4 3.4 0 0 1-.147-3.576 3.363 3.363 0 1 1 5.693 3.573l-2.466 3.65a.372.372 0 0 1-.616 0Zm0 0"/><path stroke-width=".7" d="M122.437 39.136a6.527 6.527 0 0 0-5.652 10.2l4.12 6.1a1.5 1.5 0 0 0 2.478 0l4.123-6.1a6.525 6.525 0 0 0-5.069-10.2Zm4.346 9.7-4.123 6.1a.621.621 0 0 1-1.031 0l-4.12-6.1a5.636 5.636 0 1 1 9.273-.006ZM122.255 57.593a.437.437 0 0 0-.437.437v.491a.656.656 0 0 1-.655.655h-6.439a.656.656 0 0 1-.655-.655v-3.785a1.53 1.53 0 0 0-1.529-1.529h-3.6a.656.656 0 0 1-.655-.655v-2.4a.437.437 0 0 0-.873 0v2.4a1.53 1.53 0 0 0 1.529 1.529h3.6a.656.656 0 0 1 .655.655v3.785a1.53 1.53 0 0 0 1.529 1.529h6.442a1.53 1.53 0 0 0 1.529-1.529v-.491a.437.437 0 0 0-.441-.437Zm0 0"/></g><path fill="none" d="M57 33h32v32H57z"/><path fill="#333" stroke="#333" stroke-width=".3" d="M81.538 39H64.462A3.465 3.465 0 0 0 61 42.462v12.923a3.465 3.465 0 0 0 3.462 3.462h17.076A3.465 3.465 0 0 0 85 55.385V42.462A3.465 3.465 0 0 0 81.538 39Zm2.077 12h-5.077a2.077 2.077 0 0 1 0-4.154h5.077Zm0-5.538h-5.077a3.462 3.462 0 1 0 0 6.923h5.077v3a2.079 2.079 0 0 1-2.077 2.077H64.462a2.079 2.079 0 0 1-2.077-2.077V42.462a2.079 2.079 0 0 1 2.077-2.077h17.076a2.079 2.079 0 0 1 2.077 2.077v3Z"/><path fill="#618d3d" d="M70.499 55.5h-4.75a.75.75 0 1 1 0-1.5h4.75a.75.75 0 0 1 0 1.5Z"/><path fill="#618d3d" stroke="#618d3d" stroke-width=".5" d="M79.461 48.231h-.923a.693.693 0 1 0 0 1.385h.923a.693.693 0 1 0 0-1.385Z"/><path fill="none" d="M70 102h32v32H70z"/><g style="isolation:isolate"><path fill="#323232" stroke="#323232" stroke-width="1" d="m96.968 127.025-1.854-8.723a1.3 1.3 0 0 0-1.267-1.113h-2.06a.444.444 0 0 0 0 .888h2.06a.433.433 0 0 1 .422.371l1.854 8.723a.456.456 0 0 1-.1.36.421.421 0 0 1-.326.157H75.723a.423.423 0 0 1-.327-.157.456.456 0 0 1-.1-.36l1.859-8.723a.433.433 0 0 1 .422-.371h2.062a.444.444 0 0 0 0-.888h-2.062a1.3 1.3 0 0 0-1.266 1.113l-1.855 8.723a1.369 1.369 0 0 0 .283 1.08 1.266 1.266 0 0 0 .98.471h19.982a1.267 1.267 0 0 0 .98-.471 1.367 1.367 0 0 0 .287-1.08Z"/><path fill="#323232" stroke="#323232" stroke-width=".6" d="M85.713 122.519a.421.421 0 0 0 .318-.147c.214-.248 5.245-6.1 5.245-9.179a5.671 5.671 0 0 0-5.563-5.774 5.671 5.671 0 0 0-5.564 5.773c0 3.078 5.031 8.927 5.245 9.179a.421.421 0 0 0 .319.148Zm0-14.211a4.8 4.8 0 0 1 4.708 4.885c0 2.117-3.146 6.333-4.708 8.21-1.564-1.877-4.708-6.092-4.708-8.211a4.8 4.8 0 0 1 4.708-4.885Z"/><path fill="#618d3d" d="M88.368 113.088a2.688 2.688 0 1 1-2.688-2.688 2.688 2.688 0 0 1 2.688 2.688Zm0 0"/><g clip-path="url(#e)" transform="translate(80.936 123.353)"><g clip-path="url(#f)" transform="translate(-5.167 -11.815)"><path fill="#618d3d" d="M-1.756 4.892h22.917v15.317H-1.756Z"/></g></g></g><path fill="none" d="M22 102h32v32H22z"/><path fill="#323232" d="m49.014 113.151-3.391-5.407a.841.841 0 0 0-.713-.394H30.67a.841.841 0 0 0-.713.394l-3.392 5.407a.843.843 0 0 0-.128.447v14.212a.841.841 0 0 0 .841.841h21.024a.841.841 0 0 0 .841-.841v-14.212a.842.842 0 0 0-.129-.447Zm-1.553 13.818H28.119v-13.125l3.018-4.815h13.31l3.014 4.815Z"/><path fill="#323232" d="M41.014 122.765h-6.728a.841.841 0 0 0-.841.841v4.485h1.682v-3.644h5.046v3.644h1.682v-4.483a.841.841 0 0 0-.841-.843ZM36.949 108.188h1.682v5.606h-1.682z"/><path fill="#618d3d" d="M41.014 119.12h-6.728a.841.841 0 0 0 0 1.682h6.728a.841.841 0 1 0 0-1.682Z"/><path fill="#323232" d="M27.278 112.953h21.024v1.682H27.278z"/><path fill="none" d="M166 102h32v32h-32z"/><g style="isolation:isolate"><g clip-path="url(#g)" transform="translate(171 106)"><g clip-path="url(#h)"><path fill="#323232" d="M-8-8h32v40H-8Z"/></g></g><g clip-path="url(#i)" transform="translate(171 106)"><path fill="none" stroke="#618d3d" stroke-linecap="round" stroke-width="2" d="M10 12h8.17M17.8 8.8l2.365 3.2M20.04 12.16 17.8 15.2"/></g></g><path fill="none" d="M364 33h32v32h-32z"/><g fill="#333" transform="translate(-4937 5775)"><rect width="14" height="2.5" rx="1.25" transform="translate(5312 -5734)"/><rect width="18" height="2.5" rx="1.25" transform="translate(5308 -5727)"/><rect width="14" height="2.5" rx="1.25" transform="translate(5312 -5720)"/></g><path fill="none" d="M563 33h32v32h-32z"/><g fill="#333" transform="translate(570 41)"><rect width="14" height="2.5" rx="1.25"/><rect width="18" height="2.5" rx="1.25" transform="translate(0 7)"/><rect width="14" height="2.5" rx="1.25" transform="translate(0 14)"/></g><path fill="none" d="M120 106h32v32h-32z"/><g stroke-width=".7"><path fill="#618d3d" stroke="#618d3d" d="M130.158 117.728h8.469a.488.488 0 0 0 0-.955h-8.469a.488.488 0 0 0 0 .955ZM135.978 122.5h-5.727a.477.477 0 1 0 0 .955h5.727a.477.477 0 1 0 0-.955ZM137.212 119.712h-6.932a.486.486 0 1 0 0 .955h6.932a.486.486 0 1 0 0-.955Z"/><path fill="#323232" stroke="#323232" d="M146 113.917v-.008a1.911 1.911 0 0 0-1.909-1.909h-17.182a1.911 1.911 0 0 0-1.909 1.909v18.614a.477.477 0 0 0 .295.441.472.472 0 0 0 .183.036.477.477 0 0 0 .337-.14l4.633-4.633h13.643a1.911 1.911 0 0 0 1.909-1.909v-7.916s.028-4.486 0-4.485Zm-.955 12.4a.955.955 0 0 1-.955.955h-13.84a.477.477 0 0 0-.337.14l-3.958 3.955v-17.458a.955.955 0 0 1 .955-.955h17.181a.955.955 0 0 1 .955.955v12.409Z"/></g><path fill="none" d="M405 33h32v32h-32z"/><path fill="#4a4a4a" stroke="#fff" stroke-width="1.5" d="m430.324 43.334-6.06 6.059 6.06 6.06a2.308 2.308 0 1 1-3.263 3.264L421 52.658l-6.061 6.061a2.308 2.308 0 0 1-3.263-3.264l6.06-6.062-6.06-6.059a2.308 2.308 0 0 1 3.263-3.264L421 46.131l6.06-6.061a2.308 2.308 0 0 1 3.263 3.264Z"/><path fill="none" d="M520 33h32v32h-32z"/><path fill="#888" stroke="#fff" stroke-width="1.5" d="m545.324 43.334-6.06 6.059 6.06 6.06a2.308 2.308 0 1 1-3.263 3.264L536 52.658l-6.061 6.061a2.308 2.308 0 0 1-3.263-3.264l6.06-6.062-6.06-6.059a2.308 2.308 0 0 1 3.263-3.264L536 46.131l6.06-6.061a2.308 2.308 0 0 1 3.263 3.264Z"/><path fill="none" d="M446 36h32v32h-32z"/><path fill="#323232" d="M471.826 41.34h-19.653a.833.833 0 0 0-.833.833 8.134 8.134 0 0 0 2.728 6.074l3.647 3.242a2.968 2.968 0 0 1 1 2.216v8.121a.833.833 0 0 0 1.295.693l4.908-3.279a.833.833 0 0 0 .371-.693v-4.842a2.968 2.968 0 0 1 1-2.216l3.647-3.242a8.134 8.134 0 0 0 2.723-6.074.833.833 0 0 0-.833-.833Zm-3 5.662-3.648 3.238a4.635 4.635 0 0 0-1.554 3.461v4.4l-3.248 2.169v-6.565a4.635 4.635 0 0 0-1.555-3.465l-3.647-3.238a6.469 6.469 0 0 1-2.115-4h17.881a6.468 6.468 0 0 1-2.115 4Zm0 0"/><path fill="#618d3d" d="M456.447 44.893h10.381a.666.666 0 0 1 0 1.333h-10.381a.666.666 0 0 1 0-1.333Z"/><path fill="none" d="M487 36h24v24h-24z"/><g fill="#4a4a4a" transform="translate(497 39)"><rect width="3.5" height="3.5" rx="1.75"/><rect width="3.5" height="3.5" rx="1.75" transform="translate(0 7)"/><rect width="3.5" height="3.5" rx="1.75" transform="translate(0 14)"/></g><g transform="translate(21.998 175)"><circle cx="15" cy="15" r="15" fill="#3c5997" transform="translate(.001)"/><g fill="#fff"><path d="M21.273 6.414H8.729a2.314 2.314 0 0 0-2.314 2.314v12.544a2.314 2.314 0 0 0 2.314 2.314h6.187l.011-6.136h-1.594a.376.376 0 0 1-.376-.375l-.01-1.978a.376.376 0 0 1 .376-.378h1.592v-1.911a3.123 3.123 0 0 1 3.333-3.426h1.624a.376.376 0 0 1 .376.376v1.668a.376.376 0 0 1-.376.376h-1c-1.076 0-1.284.511-1.284 1.262v1.655h2.359a.376.376 0 0 1 .374.42l-.234 1.978a.376.376 0 0 1-.374.332h-2.119l-.011 6.136h3.681a2.314 2.314 0 0 0 2.314-2.314V8.728a2.314 2.314 0 0 0-2.314-2.314Z"/><path d="m14.916 23.586.011-6.136h-.026v6.136Z"/></g></g><g clip-path="url(#j)" transform="translate(62 175)"><path fill="url(#k)" d="M29.91 8.816a11.012 11.012 0 0 0-.7-3.641 7.351 7.351 0 0 0-1.73-2.657A7.354 7.354 0 0 0 24.825.787a11.01 11.01 0 0 0-3.641-.7C19.585.017 19.074 0 15 0s-4.585.017-6.184.09a11.014 11.014 0 0 0-3.641.7 7.352 7.352 0 0 0-2.657 1.73A7.353 7.353 0 0 0 .787 5.174a11.011 11.011 0 0 0-.7 3.641C.017 10.415 0 10.926 0 15s.017 4.585.091 6.185a11.01 11.01 0 0 0 .7 3.641 7.351 7.351 0 0 0 1.73 2.657 7.35 7.35 0 0 0 2.657 1.73 11.007 11.007 0 0 0 3.641.7c1.6.073 2.111.09 6.184.09s4.585-.017 6.184-.09a11.008 11.008 0 0 0 3.641-.7 7.669 7.669 0 0 0 4.387-4.387 11.009 11.009 0 0 0 .7-3.641c.073-1.6.09-2.111.09-6.184s-.022-4.586-.095-6.185Z"/></g><g fill="#fff"><path d="M80.47 181.414h-6.941a5.121 5.121 0 0 0-5.115 5.115v6.941a5.121 5.121 0 0 0 5.116 5.116h6.941a5.121 5.121 0 0 0 5.116-5.116v-6.941a5.121 5.121 0 0 0-5.116-5.115Zm3.388 12.056a3.388 3.388 0 0 1-3.388 3.388h-6.941a3.388 3.388 0 0 1-3.388-3.388v-6.941a3.388 3.388 0 0 1 3.388-3.388h6.941a3.388 3.388 0 0 1 3.388 3.388Z"/><path d="M77 185.557a4.441 4.441 0 1 0 4.441 4.441A4.441 4.441 0 0 0 77 185.557Zm0 7.155a2.714 2.714 0 1 1 2.714-2.714A2.714 2.714 0 0 1 77 192.712Z"/></g><path fill="#fff" d="M82.508 185.592a1.064 1.064 0 1 1-1.064-1.064 1.064 1.064 0 0 1 1.064 1.064Z"/><g transform="translate(101.998 175)"><circle cx="15" cy="15" r="15" fill="#4376b1" transform="translate(.001)"/><path fill="#fff" d="M22.033 6.414H7.968a1.553 1.553 0 0 0-1.553 1.553v14.065a1.553 1.553 0 0 0 1.553 1.553h14.065a1.553 1.553 0 0 0 1.553-1.553V7.967a1.553 1.553 0 0 0-1.553-1.553Zm-10.3 14.827a.452.452 0 0 1-.452.452H9.357a.452.452 0 0 1-.452-.452v-8.066a.452.452 0 0 1 .452-.452h1.924a.452.452 0 0 1 .452.452v8.071Zm-1.414-9.279a1.828 1.828 0 1 1 1.828-1.828 1.828 1.828 0 0 1-1.828 1.828Zm11.47 9.315a.416.416 0 0 1-.415.416h-2.065a.416.416 0 0 1-.416-.416v-3.784c0-.564.166-2.473-1.475-2.473-1.273 0-1.531 1.307-1.583 1.893v4.364a.416.416 0 0 1-.416.416h-2a.416.416 0 0 1-.416-.416v-8.139a.416.416 0 0 1 .416-.416h2a.416.416 0 0 1 .416.416v.7a2.835 2.835 0 0 1 2.666-1.255c3.306 0 3.287 3.089 3.287 4.786v3.9Z"/></g><g transform="translate(142 175)"><circle cx="15" cy="15" r="15" fill="#ca2127"/><path fill="#fff" d="M23.582 15.247a8.586 8.586 0 1 0-12.332 7.474.242.242 0 0 0 .348-.227 6.463 6.463 0 0 1 .108-1.618c.109-.467.536-2.275.816-3.463a4.246 4.246 0 0 0 .043-1.762 3.6 3.6 0 0 1-.062-.667c0-1.269.736-2.216 1.651-2.216a1.147 1.147 0 0 1 1.155 1.286 18.4 18.4 0 0 1-.756 3.039 1.325 1.325 0 0 0 1.351 1.649c1.622 0 2.869-1.71 2.869-4.179a3.6 3.6 0 0 0-3.812-3.713 3.95 3.95 0 0 0-4.121 3.961 3.55 3.55 0 0 0 .679 2.083.273.273 0 0 1 .063.262c-.069.288-.223.908-.254 1.035-.04.167-.132.2-.305.122a4.091 4.091 0 0 1-1.853-3.536c0-2.879 2.092-5.523 6.03-5.523a5.356 5.356 0 0 1 5.626 5.271c0 3.145-1.983 5.677-4.736 5.677a2.686 2.686 0 0 1-1.828-.7.228.228 0 0 0-.382.1l-.45 1.719a7.919 7.919 0 0 1-.7 1.645.243.243 0 0 0 .155.351 8.612 8.612 0 0 0 2.2.263 8.731 8.731 0 0 0 8.5-8.334Z"/></g><g transform="translate(182 175)"><circle cx="15" cy="15" r="15" fill="#65a2d9"/><path fill="#fff" d="M23.312 9.52a6.787 6.787 0 0 1-1.184.4 3.69 3.69 0 0 0 .974-1.552.194.194 0 0 0-.283-.225 6.83 6.83 0 0 1-1.81.748.457.457 0 0 1-.113.014.48.48 0 0 1-.317-.121 3.7 3.7 0 0 0-2.45-.924 3.956 3.956 0 0 0-1.173.181 3.587 3.587 0 0 0-2.417 2.584 3.95 3.95 0 0 0-.088 1.363.133.133 0 0 1-.033.1.138.138 0 0 1-.1.046h-.013a9.707 9.707 0 0 1-6.672-3.565.194.194 0 0 0-.317.025 3.707 3.707 0 0 0 .6 4.5 3.32 3.32 0 0 1-.845-.327.194.194 0 0 0-.288.167 3.707 3.707 0 0 0 2.165 3.417h-.079a3.317 3.317 0 0 1-.624-.059.194.194 0 0 0-.221.249 3.71 3.71 0 0 0 2.931 2.524 6.831 6.831 0 0 1-3.826 1.162h-.428a.283.283 0 0 0-.277.214.293.293 0 0 0 .14.324 10.16 10.16 0 0 0 5.106 1.377 10.3 10.3 0 0 0 4.363-.926 9.635 9.635 0 0 0 3.193-2.392 10.487 10.487 0 0 0 1.955-3.274 10.343 10.343 0 0 0 .664-3.583v-.056a.63.63 0 0 1 .236-.49 7.319 7.319 0 0 0 1.472-1.616.194.194 0 0 0-.239-.284Z"/></g><g transform="translate(222 175)"><circle cx="15" cy="15" r="15" fill="#d22215"/><path fill="#fff" d="M20.017 8.926H9.982a3.566 3.566 0 0 0-3.565 3.567v5.018a3.566 3.566 0 0 0 3.566 3.566h10.034a3.566 3.566 0 0 0 3.566-3.566v-5.018a3.566 3.566 0 0 0-3.566-3.566Zm-2.411 6.318-4.689 2.239a.188.188 0 0 1-.27-.17v-4.62a.188.188 0 0 1 .274-.168l4.7 2.379a.188.188 0 0 1 0 .338Z"/></g><path fill="#74e9e2" d="M284.552 169.786c8.956-7.253 18.529.385 25.781 9.341a18.543 18.543 0 0 1 1.307 1.848c5.333 8.314.16 18.2-8.282 25.036-8.957 7.253-20.702 7.544-27.953-1.41s.195-27.566 9.147-34.815Z" opacity=".21"/><path fill="#f1c6b4" d="M304.535 180.071c-2.347 3.129-6.037 3.572-9.593 4.282a10.827 10.827 0 0 0 .477 3.7c.587 2.055 1.779 4.111 2.407 6.245.145.011.292.023.442.023h3.419a6.239 6.239 0 0 0 2.285-.436c1.9-3.215 3.142-6.321 3.134-9.777a4.562 4.562 0 0 1-2.571-4.037Z"/><path fill="#f1bda7" d="M304.534 180.071a4.562 4.562 0 0 0 2.57 4.031 14.878 14.878 0 0 0-.291-2.892 22.325 22.325 0 0 0-1-2.849h-9.522a16.665 16.665 0 0 0-1.35 5.991c3.557-.708 7.25-1.151 9.593-4.281ZM292 188.048a6.263 6.263 0 0 0 5.826 6.245c-.628-2.134-1.82-4.189-2.407-6.245a10.827 10.827 0 0 1-.477-3.695 26.017 26.017 0 0 0-2.941.728Z"/><path fill="#dfaf9d" d="M296.29 178.362a16.841 16.841 0 0 0-1.29 5.059c-.034.313-.051.621-.063.929a25.768 25.768 0 0 0-2.94.729v-6a6.8 6.8 0 0 1 .33-.718Z"/><path fill="#f4cfc2" d="M307.953 179.069v5.492c-.291-.142-.575-.3-.849-.461 0-.188-.006-.382-.011-.575a14.469 14.469 0 0 0-.277-2.313 22.042 22.042 0 0 0-1-2.85h1.818a6.078 6.078 0 0 1 .319.707Z"/><path fill="#f4cfc2" d="M307.104 184.103c.009 3.456-1.238 6.562-3.134 9.777a6.266 6.266 0 0 0 3.983-5.831v-3.484a12.279 12.279 0 0 1-.849-.462Z"/><path fill="#f1c6b4" d="M302.255 196.594c.33-.5.647-.984.953-1.47a15.479 15.479 0 0 1-3.232.33 16.474 16.474 0 0 1-1.893-.108 6.942 6.942 0 0 1-.956 5.236 2.794 2.794 0 0 1-.712.7 4.05 4.05 0 0 0 3.561 2.144 4.045 4.045 0 0 0 3.4-1.877c-1.914-1.066-2.937-2.36-1.121-4.955Z"/><path fill="#f1bda7" d="M297.128 200.583a6.942 6.942 0 0 0 .956-5.236 14.308 14.308 0 0 1-1.634-.285 10.791 10.791 0 0 1 .108 1.533 10.575 10.575 0 0 1-.57 3.418 3.985 3.985 0 0 0 .427 1.275 2.793 2.793 0 0 0 .713-.705Z"/><path fill="#f4cfc2" d="M303.395 196.595a10.56 10.56 0 0 1 .114-1.533c-.1.023-.2.041-.3.063a65.84 65.84 0 0 1-.953 1.47c-1.816 2.6-.793 3.889 1.125 4.96a3.985 3.985 0 0 0 .585-1.542 10.494 10.494 0 0 1-.571-3.418Z"/><path fill="#fedb95" d="M313.907 204.047a4.556 4.556 0 0 0-3.817-3.27c-1.971-.245-4.49-.558-6.125-.763a3.985 3.985 0 0 1-.584 1.541c2.293 1.282 5.87 2.243 7.421 4.726a5 5 0 0 1 .712 2.849h3.846Z"/><path fill="#febd73" d="M310.802 206.28c-1.551-2.482-5.13-3.442-7.421-4.726a4.045 4.045 0 0 1-3.4 1.877 4.05 4.05 0 0 1-3.561-2.144c-1.471 1.06-4.03 1.37-4.985 3.283a5.993 5.993 0 0 0 1.237 4.558h18.85a5 5 0 0 0-.717-2.848Z"/><path fill="#fab06a" d="M291.43 204.571c.956-1.913 3.514-2.223 4.985-3.283a3.985 3.985 0 0 1-.422-1.275l-6.125.763a4.563 4.563 0 0 0-3.817 3.27l-1.458 5.083h8.071a5.993 5.993 0 0 1-1.234-4.558Z"/><path fill="#fb8e52" d="M290.861 207.99v1.14h-1.14v-1.14a.571.571 0 0 1 .57-.57.571.571 0 0 1 .57.57ZM309.662 207.42a.571.571 0 0 0-.57.57v1.14h1.14v-1.14a.571.571 0 0 0-.57-.57Z"/><path fill="#656f74" d="M292 187.062a1.057 1.057 0 0 1 .57-.169 1.057 1.057 0 0 1 .57.169v-2.32q-.579.182-1.14.412Z"/><path fill="#2e3b40" d="M292 183.806v1.347q.56-.231 1.14-.412v-.936Z"/><path fill="#656f74" d="M307.952 182.92h-1.139v.994a10.659 10.659 0 0 0 1.139.65Z"/><path fill="#75828b" d="M306.813 183.914v2.994h.154a1.137 1.137 0 0 1 .986-.57v-1.775a10.658 10.658 0 0 1-1.14-.649Z"/><path fill="#38464b" d="M308.523 182.004v1.538a.5.5 0 0 1-.285.45.562.562 0 0 1-.285.063.537.537 0 0 1-.262-.091l-.239-.154-.359-.291-.444-.353a12.929 12.929 0 0 0-.262-2.188c-1.043-3.5-2.6-6.5-6.626-7.122l.051-.051c.057 0 .108-.006.165-.006a8.658 8.658 0 0 1 6.039 2.4 8.065 8.065 0 0 1 1.618 2.154 6.076 6.076 0 0 1 .319.707 7.785 7.785 0 0 1 .57 2.944Z"/><path fill="#2e3b40" d="M299.538 173.257c.073.01.138.027.208.038l.054-.053Z"/><path fill="#2b3437" d="M299.76 173.861a14.539 14.539 0 0 0-4.49 9.492l-.268.068q-.709.188-1.436.342l-1.065.211c-.154.028-.3.051-.444.08a.214.214 0 0 1-.057.006h-.034a.508.508 0 0 1-.342-.125.488.488 0 0 1-.194-.388v-1.538a7.729 7.729 0 0 1 .57-2.929 6.8 6.8 0 0 1 .33-.718 8.569 8.569 0 0 1 7.236-4.535c.064.006.125.023.194.034Z"/><path fill="#2e3b40" d="M304.452 179.264c.295 1.154.348 1.329.353 1.355a5.519 5.519 0 0 0 1.581 2.343l.262.208a12.93 12.93 0 0 0-.262-2.188c-1.04-3.5-2.6-6.5-6.625-7.123a14.544 14.544 0 0 0-4.491 9.5 30.79 30.79 0 0 0 2.762-.87 31.855 31.855 0 0 0 6.42-3.225Z"/><path fill="#b4d3df" d="M293.709 193.967a.286.286 0 0 1-.275-.208l-2.279-6.2a.269.269 0 0 1-.01-.076v-1.139a.284.284 0 0 1 .135-.242.285.285 0 0 1 .276-.013l3.419 1.709a.285.285 0 0 1 .128.382.285.285 0 0 1-.382.128l-3.007-1.5v.64l2.269 6.166a.284.284 0 0 1-.027.217.284.284 0 0 1-.173.133.266.266 0 0 1-.074 0ZM306.244 193.967a.275.275 0 0 1-.076-.01.284.284 0 0 1-.173-.133.284.284 0 0 1-.027-.217l2.269-6.166v-.64l-3.007 1.5a.285.285 0 0 1-.382-.128.286.286 0 0 1 .128-.382l3.419-1.709a.281.281 0 0 1 .276.013.284.284 0 0 1 .135.242v1.139a.269.269 0 0 1-.01.076l-2.279 6.2a.286.286 0 0 1-.273.215Z"/><path fill="#00c7c7" d="m295.367 187.877-.518.046s.285 4.21-1.709 5.76a9.182 9.182 0 0 0 3.31 1.379 14.32 14.32 0 0 0 1.634.285c-.48-2.515-1.981-4.907-2.665-7.3-.019-.055-.035-.113-.052-.17Z"/><path fill="#64e1db" d="m305.104 187.922-5.128-.444-4.609.4c.017.057.033.115.051.171.684 2.392 2.185 4.783 2.665 7.3a16.472 16.472 0 0 0 1.893.108 15.479 15.479 0 0 0 3.232-.33 35.785 35.785 0 0 0 2.191-3.937 11.931 11.931 0 0 1-.295-3.268Z"/><path fill="#b4f5f0" d="M306.818 193.683a4.489 4.489 0 0 1-1.414-2.5 35.777 35.777 0 0 1-2.191 3.937c.1-.021.205-.04.3-.063a9.239 9.239 0 0 0 3.3-1.374Z"/><path fill="#00c7c7" d="M302.825 190.612a.246.246 0 0 1-.056-.006l-2.793-.558-2.793.558a.287.287 0 0 1-.335-.224.284.284 0 0 1 .042-.214.284.284 0 0 1 .182-.121l2.849-.57a.292.292 0 0 1 .111 0l2.849.57a.284.284 0 0 1 .182.121.284.284 0 0 1 .042.214.285.285 0 0 1-.28.23ZM302.825 192.891a.246.246 0 0 1-.056-.006l-2.793-.558-2.793.558a.287.287 0 0 1-.335-.224.283.283 0 0 1 .042-.214.283.283 0 0 1 .182-.121l2.849-.57a.292.292 0 0 1 .111 0l2.849.57a.283.283 0 0 1 .182.121.283.283 0 0 1 .042.214.285.285 0 0 1-.28.23Z"/><path fill="#f1c6b4" d="M306.813 187.479v2.279a1.143 1.143 0 0 0 1.139 1.139 1.143 1.143 0 0 0 1.14-1.139v-2.279a1.114 1.114 0 0 0-.336-.8 1.114 1.114 0 0 0-.8-.336 1.137 1.137 0 0 0-.986.57 1.136 1.136 0 0 0-.157.566Z"/><path fill="#dfaf9d" d="M293.139 189.758v-2.279a1.114 1.114 0 0 0-.336-.8 1.033 1.033 0 0 0-.234-.182 1.136 1.136 0 0 0-.57-.154 1.137 1.137 0 0 0-.57.154 1.137 1.137 0 0 0-.57.986v2.279a1.143 1.143 0 0 0 1.14 1.139 1.143 1.143 0 0 0 1.14-1.143Z"/><path fill="#404042" d="M297.391 185.769a.568.568 0 0 1-.217-.046.658.658 0 0 1-.188-.12.6.6 0 0 1-.165-.4.6.6 0 0 1 .165-.4.657.657 0 0 1 .188-.12.569.569 0 0 1 .621.12.6.6 0 0 1 .165.4.6.6 0 0 1-.165.4.6.6 0 0 1-.404.166ZM303.088 185.769a.567.567 0 0 1-.217-.046.531.531 0 0 1-.188-.12.6.6 0 0 1-.165-.4.6.6 0 0 1 .165-.4.6.6 0 0 1 .809 0 .6.6 0 0 1 .165.4.6.6 0 0 1-.165.4.531.531 0 0 1-.188.12.567.567 0 0 1-.216.046Z"/><path fill="#ffd5bf" d="m315.813 203.111-.093 4.958v1.32l-5.192.005.496-6.66Z"/><path fill="#23b9b9" d="m315.064 191.39.118 4.938.25.005-.153-4.72a.7.7 0 0 0-.197-.462.6.6 0 0 0-.12-.096.654.654 0 0 1 .102.335ZM313.559 190.561a.654.654 0 0 1 .101.336l.135 5.398.233.006h.014l-.11-3.485-.018-.539-.037-1.158a.788.788 0 0 0-.015-.125.01.01 0 0 1-.005-.005.786.786 0 0 0-.1-.232.841.841 0 0 0-.08-.098.6.6 0 0 0-.118-.098ZM312.372 196.262l.256.007-.145-4.945a.65.65 0 0 0-.146-.238.722.722 0 0 0-.12-.098l-.008-.01a.547.547 0 0 1 .042.1Z"/><path fill="#64e1db" d="M314.961 191.055a.6.6 0 0 1 .12.096.7.7 0 0 0-.483-.212.682.682 0 0 0-.7.7l-.017-.51a.662.662 0 0 0-.02-.135.788.788 0 0 1 .016.125l.036 1.157.018.539.111 3.488h-.014l-.233-.007-.134-5.399a.654.654 0 0 0-.102-.335.6.6 0 0 1 .121.096.841.841 0 0 1 .08.097.526.526 0 0 0-.078-.1.7.7 0 0 0-.498-.213.692.692 0 0 0-.705.71l.007.174.142 4.943-.256-.007-.12-5.177a.547.547 0 0 0-.041-.098.733.733 0 0 0-.387-.121.738.738 0 0 0-.74.715l-.133 6.162-1.584-1.936 2.286 2.797.129.046a2.329 2.329 0 0 1 1.36 1.265 1.31 1.31 0 0 1 .055.873l-.18.66a.812.812 0 0 0-.06-.45 1.3 1.3 0 0 0-.059-.854 2.328 2.328 0 0 0-1.36-1.264l-.123-.052-2.286-2.797a.665.665 0 0 0-.633-.223l-.008-.007a.611.611 0 0 0-.144.046c.554.982.662 2.032 1.192 2.95.677 1.656 2.54 2.628 2.746 4.278.122.68.01 1.59.157 2.423l2.735.161a11.831 11.831 0 0 1 1.445-7.736l-.264-5.072a.663.663 0 0 0-.175-.443.649.649 0 0 0-.855.578l-.045-1.372.153 4.72-.249-.004-.118-4.938a.654.654 0 0 0-.105-.337Z"/><path fill="#b4f5f0" d="m315.175 205.66.59.035.048-2.584a.673.673 0 0 1 .072-.37l.797-1.533a.7.7 0 0 0 .074-.316l-.006-.473-.13-2.496a11.831 11.831 0 0 0-1.445 7.737Z"/><path fill="#23b9b9" d="M309.532 198.8c-.53-.918-.638-1.968-1.192-2.95a.626.626 0 0 0-.058.028.665.665 0 0 0-.059.586l1.517 3.985 1.286 2.283-.2 2.67 1.613.096c-.146-.833-.035-1.742-.159-2.421-.205-1.65-2.07-2.621-2.746-4.28Z"/><path fill="#64e1db" d="m315.746 206.661.02-.967-.59-.035a8.719 8.719 0 0 0 .253.982Z"/><path fill="#23b9b9" d="m312.79 206.47 2.638.171a8.719 8.719 0 0 1-.253-.981l-2.736-.162a2.693 2.693 0 0 0 .352.973Z"/><path fill="#1da5b9" d="m310.756 206.339 2.035.131a2.693 2.693 0 0 1-.348-.976l-1.618-.091Z"/><path fill="#b4f5f0" d="M316.367 192.498a.682.682 0 0 0-.17-.085.026.026 0 0 0-.019-.01c-.01 0 0 0 .004.004a.663.663 0 0 1 .175.443l.263 5.072.128 2.498-.034-2.675-.063-4.709a.659.659 0 0 0-.032-.191c-.008-.008-.007-.024-.01-.036a.685.685 0 0 0-.088-.159l-.02-.02a.68.68 0 0 0-.134-.132Z"/><path fill="#23b9b9" d="M313.141 199.912a2.329 2.329 0 0 0-1.36-1.264l-.128-.05-2.286-2.797a.665.665 0 0 0-.633-.223l-.008-.008a.691.691 0 0 0-.143.045.45.45 0 0 0-.045.024.652.652 0 0 0-.082.048c-.013.004-.022.013-.03.02a.649.649 0 0 0-.076.074.065.065 0 0 0-.02.027l-.009.01.02.032a.611.611 0 0 1 .144-.047l.01.001a.665.665 0 0 1 .633.234l2.286 2.796.129.047a2.329 2.329 0 0 1 1.359 1.262 1.3 1.3 0 0 1 .058.855.812.812 0 0 1 .053.446l.18-.66a1.31 1.31 0 0 0-.052-.872Z"/><path fill="#ffd5bf" d="m284.236 203.115.091 4.96v1.32l5.194.003-.496-6.66Z"/><path fill="#23b9b9" d="m284.985 191.394-.118 4.939-.25.004.154-4.72a.7.7 0 0 1 .197-.462.6.6 0 0 1 .12-.096.654.654 0 0 0-.103.335ZM286.49 190.565a.654.654 0 0 0-.101.336l-.136 5.399-.233.006h-.014l.11-3.485.018-.539.036-1.157a.788.788 0 0 1 .015-.124.01.01 0 0 0 .005-.006.786.786 0 0 1 .1-.232.841.841 0 0 1 .08-.097.6.6 0 0 1 .12-.1ZM287.677 196.266l-.256.007.145-4.945a.65.65 0 0 1 .146-.238.722.722 0 0 1 .12-.098l.008-.009a.547.547 0 0 0-.038.095Z"/><path fill="#64e1db" d="M285.088 191.06a.6.6 0 0 0-.12.096.7.7 0 0 1 .483-.213.682.682 0 0 1 .7.7l.017-.51a.662.662 0 0 1 .02-.135.788.788 0 0 0-.016.125l-.036 1.157-.018.54-.111 3.487h.014l.233-.006.134-5.4a.654.654 0 0 1 .102-.335.6.6 0 0 0-.121.096.841.841 0 0 0-.08.098.526.526 0 0 1 .078-.1.7.7 0 0 1 .495-.216.692.692 0 0 1 .706.71l-.005.17-.142 4.95.252-.005.123-5.18a.547.547 0 0 1 .042-.098.728.728 0 0 1 1.126.598l.134 6.158 1.584-1.936-2.286 2.797-.129.047a2.329 2.329 0 0 0-1.36 1.264 1.31 1.31 0 0 0-.055.873l.184.657a.812.812 0 0 1 .053-.448 1.3 1.3 0 0 1 .059-.854 2.329 2.329 0 0 1 1.36-1.264l.13-.047 2.286-2.797a.665.665 0 0 1 .632-.234l.007-.003a.611.611 0 0 1 .145.046c-.554.982-.662 2.032-1.192 2.95-.677 1.657-2.541 2.628-2.746 4.279-.121.68-.013 1.592-.16 2.426l-2.736.161a11.831 11.831 0 0 0-1.444-7.737l.264-5.072a.663.663 0 0 1 .175-.443.649.649 0 0 1 .855.578l.044-1.371-.152 4.72.249-.003.118-4.938a.654.654 0 0 1 .105-.339Z"/><path fill="#b4f5f0" d="m284.874 205.664-.59.035-.047-2.584a.673.673 0 0 0-.072-.37l-.798-1.533a.7.7 0 0 1-.074-.317l.006-.472.135-2.5a11.831 11.831 0 0 1 1.44 7.741Z"/><path fill="#23b9b9" d="M290.517 198.804c.53-.918.638-1.968 1.192-2.95.02.01.04.018.058.028a.665.665 0 0 1 .059.587l-1.517 3.984-1.287 2.284.2 2.67-1.612.096c.145-.833.034-1.742.158-2.421.205-1.651 2.07-2.621 2.747-4.28Z"/><path fill="#64e1db" d="m284.303 206.665-.02-.966.59-.035a8.719 8.719 0 0 1-.254.982Z"/><path fill="#23b9b9" d="m287.258 206.475-2.637.17a8.719 8.719 0 0 0 .253-.981l2.736-.162a2.693 2.693 0 0 1-.352.973Z"/><path fill="#1da5b9" d="m289.293 206.343-2.035.131a2.693 2.693 0 0 0 .348-.976l1.618-.09Z"/><path fill="#b4f5f0" d="M283.683 192.501a.682.682 0 0 1 .168-.083.026.026 0 0 1 .02-.01c.01 0 0 0-.005.004a.663.663 0 0 0-.175.443l-.262 5.071-.13 2.5.036-2.677.063-4.708a.659.659 0 0 1 .032-.192c.008-.008.007-.024.01-.035a.685.685 0 0 1 .087-.16l.02-.021a.68.68 0 0 1 .136-.132Z"/><path fill="#23b9b9" d="M286.908 199.915a2.329 2.329 0 0 1 1.361-1.264l.126-.048 2.287-2.797a.665.665 0 0 1 .639-.23.691.691 0 0 1 .14.044c.016.007.029.016.045.024a.652.652 0 0 1 .079.05l.027.025a.649.649 0 0 1 .076.074.074.074 0 0 1 .023.023l.01.009a.209.209 0 0 0-.018.03.611.611 0 0 0-.142-.045l-.004-.004a.665.665 0 0 0-.632.234l-2.287 2.797-.128.046a2.329 2.329 0 0 0-1.362 1.265 1.3 1.3 0 0 0-.06.853.812.812 0 0 0-.053.448l-.18-.66a1.31 1.31 0 0 1 .053-.874Z"/><path fill="#74e9e2" d="M357.552 169.786c8.956-7.253 18.529.385 25.781 9.341a18.543 18.543 0 0 1 1.307 1.848c5.333 8.314.16 18.2-8.282 25.036-8.957 7.253-20.702 7.544-27.953-1.41s.195-27.566 9.147-34.815Z" opacity=".21"/><path fill="#17aaa6" d="M379.387 177.638v5.5h2.2v-1.6a12.028 12.028 0 0 1-2.011-3.9Z"/><path fill="#23b9b9" d="M379.576 177.638a12.028 12.028 0 0 0 2.011 3.9v-3.9Z"/><path fill="#c7d8dd" d="M381.586 181.538v1.6h4.4v7.7h2.749a15.516 15.516 0 0 1-2.2-8.247 4.064 4.064 0 0 1-4.949-1.053Z"/><path fill="#ccdee6" d="M387.811 177.638h-6.225v3.9a4.064 4.064 0 0 0 4.948 1.048 15.516 15.516 0 0 0 2.2 8.247h.279a29.048 29.048 0 0 0-1.2-13.195Z"/><path fill="#dfebf0" d="m390.384 179.837-2.2-2.2h-.374a29.046 29.046 0 0 1 1.2 13.2h1.37Z"/><path fill="#a3c8d5" d="M383.785 181.486h3.3v-2.2h-3.3Z"/><path fill="#efc2b0" d="m372.679 195.068-12.536-2 1.875 2.705a1.685 1.685 0 0 1 .3 1.254l-.616 3.546 1.847.22a1.733 1.733 0 0 1 .44-.061c0-1.649 1.649-3.849 0-4.948 2.9-.003 6.108.619 8.69-.716Z"/><path fill="#ffd5bf" d="m371.362 201.725.878.1-.526-3.626a2.129 2.129 0 0 1 .926-2.071l.256-.177c-1.933.884-2.652 3.263-1.534 5.774Z"/><path fill="#f9cdba" d="M372.679 195.071c-2.581 1.332-5.789.711-8.686.711 1.649 1.1 0 3.3 0 4.948a1.733 1.733 0 0 0-.44.06l7.809.935c-1.117-2.511-.4-4.892 1.534-5.77l.994-.69ZM363.225 175.95a10.067 10.067 0 0 0-3.212 1.715 10.076 10.076 0 0 0-3.166 4.4 9.51 9.51 0 0 0-.525 2.474 9.778 9.778 0 0 0 .289 3.168 9.789 9.789 0 0 0 4.313 5.793 10.006 10.006 0 0 0 4.286 1.479l3.59.155c-6.32-3.984-9.983-12.7-5.575-19.184Z"/><path fill="#fbe3da" d="M374.993 183.134c.871 2.613 1.743 4.89 2.613 7.633a1.082 1.082 0 0 0 .6-.6 1.082 1.082 0 0 0-.012-.847l-1.818-4.068a9.894 9.894 0 0 0-9.289-9.749 17.4 17.4 0 0 1 7.9 7.627ZM374.682 195.265h.811a1.133 1.133 0 0 0 1.146-1.1v-2.3c-.526 1.2-.86 2.489-1.957 3.4Z"/><path fill="#ffd5bf" d="M376.639 191.867v-1h.531l.019-.031-.019.031a1.134 1.134 0 0 0 .433-.1c-.87-2.743-1.742-5.02-2.613-7.633a17.4 17.4 0 0 0-7.9-7.626 10.5 10.5 0 0 0-1.942.029 9.937 9.937 0 0 0-1.917.415c-4.408 6.485-.745 15.2 5.575 19.186l2.891.125h2.991c1.091-.909 1.425-2.2 1.951-3.4Z"/><path fill="#e99d5d" d="M364.882 199.755a9.633 9.633 0 0 0-6.867 3.673 10.052 10.052 0 0 0-1.719 6.131h6.03c-1.021-3.913-1.601-7.818 2.556-9.804Z"/><path fill="#febd73" d="M373.549 201.83a12.463 12.463 0 0 0-4.893-1.944c2.941 2.915 5.894 5.931 7.453 9.674h2.18a12.488 12.488 0 0 0-3.006-6.255 10.548 10.548 0 0 0-1.734-1.475Z"/><path fill="#fab06a" d="M368.656 199.885a13.3 13.3 0 0 0-3.774-.131c-4.157 1.986-3.576 5.891-2.555 9.8h13.781c-1.558-3.738-4.516-6.753-7.452-9.669Z"/><path fill="#fb8e52" d="M361.207 209.56h10.484v-3.332h-10.484Z"/><path fill="#d8874b" d="m361.207 206.228-1.064 3.299 1.063.033Z"/><path fill="#e99d5d" d="m371.69 209.56-1.1-3.332h1.1Z"/><path fill="#ff8680" d="M378.287 180.387h.55v-.55h-.55ZM377.738 179.837h.55v-.55h-.55ZM377.738 180.937h.55v-.55h-.55ZM377.188 181.487h.55v-.55h-.55ZM377.188 179.287h.55v-.55h-.55ZM377.188 180.387h.55v-.55h-.55ZM376.638 182.036h.55v-.55h-.55ZM376.638 179.837h.55v-.55h-.55ZM376.638 178.738h.55v-.55h-.55ZM376.638 180.937h.55v-.55h-.55Z"/><path fill="#404042" d="M371.669 184.261a.547.547 0 0 1-.209-.044.635.635 0 0 1-.181-.115.578.578 0 0 1-.159-.39.578.578 0 0 1 .159-.39.636.636 0 0 1 .181-.115.549.549 0 0 1 .6.115.578.578 0 0 1 .159.39.578.578 0 0 1-.159.39.578.578 0 0 1-.391.159Z"/><path fill="#74e9e2" d="M426.552 169.786c8.956-7.253 18.529.385 25.781 9.341a18.543 18.543 0 0 1 1.307 1.848c5.333 8.314.16 18.2-8.282 25.036-8.957 7.253-20.702 7.544-27.953-1.41s.195-27.566 9.147-34.815Z" opacity=".21"/><path fill="#ff8680" d="M450.482 205.774a.3.3 0 0 0 .017-.032.269.269 0 0 0 .027-.114.268.268 0 0 0-.027-.113.3.3 0 0 0-.017-.027.29.29 0 0 0-.052-.062l-.011-.013-2.149-1.605a.27.27 0 0 0-.376.054.269.269 0 0 0 .054.376l1.5 1.128h-14.5l1.5-1.128a.269.269 0 0 0 .054-.376.27.27 0 0 0-.376-.054l-2.156 1.611-.011.013a.29.29 0 0 0-.052.062.3.3 0 0 0-.017.027.268.268 0 0 0-.027.113.27.27 0 0 0 .027.114.3.3 0 0 0 .017.027.29.29 0 0 0 .052.062l.011.013 2.149 1.611a.267.267 0 0 0 .161.054.268.268 0 0 0 .215-.107.269.269 0 0 0-.054-.376l-1.5-1.128h14.51l-1.5 1.128a.269.269 0 0 0-.054.376.268.268 0 0 0 .215.107.267.267 0 0 0 .161-.054l2.149-1.611.011-.013a.291.291 0 0 0 .049-.063Z"/><path fill="#fab06a" d="m430.832 187.307 4.42-.524a.663.663 0 0 1 .528.156.663.663 0 0 1 .228.5.663.663 0 0 1-.48.636l-4.696 1.126ZM425.78 178.467v1.263a2.525 2.525 0 0 0 2.526 2.526v-6.315a2.525 2.525 0 0 0-2.526 2.526Z"/><path fill="#febd73" d="M430.832 179.73v-1.263a2.525 2.525 0 0 0-2.526-2.526v6.314a2.525 2.525 0 0 0 2.526-2.525ZM431.463 187.903a2.526 2.526 0 0 0-.267-1.13l-.3-.6a2.525 2.525 0 0 0-2.259-1.4h-.331v22.732h1.053a2.344 2.344 0 0 0 2.1-2.526Z"/><path fill="#fab06a" d="m426.412 184.781-.431.216a3.787 3.787 0 0 0-2.095 3.384v5.977a1.261 1.261 0 0 0 .369.892l.524.531a1.26 1.26 0 0 1 .369.892v8.318a2.344 2.344 0 0 0 2.1 2.526h1.058v-22.736Z"/><path fill="#fb8e52" d="m426.288 190.025-.3 4.445 8.896 2.551a.652.652 0 0 0 .738-1.072l-6.848-3.06.237-3.556"/><path fill="#74e9e2" d="m452.958 188.478-4.058 1.828a.663.663 0 0 0 .43 1.25l4.608-1.456ZM458.064 178.467v1.263a2.525 2.525 0 0 1-2.526 2.525v-6.314a2.525 2.525 0 0 1 2.526 2.526Z"/><path fill="#64e1db" d="M453.012 179.73v-1.263a2.525 2.525 0 0 1 2.526-2.526v6.314a2.525 2.525 0 0 1-2.526-2.525ZM452.38 187.903a2.526 2.526 0 0 1 .267-1.13l.3-.6a2.525 2.525 0 0 1 2.259-1.4h.333v22.732h-1.059a2.344 2.344 0 0 1-2.1-2.524Z"/><path fill="#74e9e2" d="m457.432 184.781.431.216a3.787 3.787 0 0 1 2.1 3.388v5.977a1.261 1.261 0 0 1-.369.892l-.524.524a1.26 1.26 0 0 0-.369.892v8.318a2.344 2.344 0 0 1-2.1 2.526h-1.063v-22.733Z"/><path fill="#45d3c7" d="m457.246 190.246-.245 4.446-9.14 1.448a.654.654 0 0 1-.602-1.157l7.169-2.2.198-3.555"/><path fill="#4889a0" d="M441.503 202.746a10.7 10.7 0 0 0 3.1 2.26h.249a19.755 19.755 0 0 1-.4-2.26Z"/><path fill="#5c99af" d="M445.93 202.746h-1.478a19.752 19.752 0 0 0 .4 2.26h1.076Z"/><path fill="#377889" d="M441.503 202.746h-3.108v2.26h6.211a10.7 10.7 0 0 1-3.103-2.26Z"/><path fill="#4889a0" d="M440.645 196.718h-2.25v6.028h3.108a5.156 5.156 0 0 1-.858-6.028Z"/><path fill="#5c99af" d="M440.646 196.718a5.156 5.156 0 0 0 .853 6.028h2.949c-.248-2.009-.279-4.019-.634-6.028Z"/><path fill="#a3c8d5" d="M445.93 196.718h-2.112c.355 2.009.386 4.019.634 6.028h1.478Z"/><path fill="#74e9e2" d="M495.552 169.786c8.956-7.253 18.529.385 25.781 9.341a18.543 18.543 0 0 1 1.307 1.848c5.333 8.314.16 18.2-8.282 25.036-8.957 7.253-20.702 7.544-27.953-1.41s.195-27.566 9.147-34.815Z" opacity=".21"/><path fill="#00c7c7" d="M507.432 189.392h-4.375c-4.4 3.923-6.625 11.408-2.035 15.489a17.533 17.533 0 0 0 4.838 3.739h3.5c3.912-6.702.298-12.982-1.928-19.228Z"/><path fill="#64e1db" d="M510.635 189.392h-3.2c2.226 6.246 5.84 12.526 1.924 19.228h1.279a2 2 0 0 0 2.134-1.828v-15.566a2 2 0 0 0-2.137-1.834Z"/><path fill="#23b9b9" d="M501.022 204.881c-4.591-4.081-2.361-11.566 2.035-15.489h-4.172a2 2 0 0 0-2.136 1.831v15.569a2 2 0 0 0 2.136 1.831h6.974a17.533 17.533 0 0 1-4.837-3.742Z"/><path fill="#febd73" d="M506.363 201.142v3.2h-3.209v-3.2h-3.2v-3.2h3.2v-3.209h3.2v3.2h3.2v3.2Z"/><path fill="#85b4c1" d="M501.387 186.187a1.434 1.434 0 0 0-1.433 1.433v1.772h3.952a5.629 5.629 0 0 1-1.23-3.2Z"/><path fill="#a3c8d5" d="M507.357 186.187h-4.681a5.629 5.629 0 0 0 1.23 3.2h3.98a3.289 3.289 0 0 0-.529-3.2Z"/><path fill="#ccdee6" d="M509.568 187.62a1.434 1.434 0 0 0-1.433-1.433h-.777a3.289 3.289 0 0 1 .533 3.2h1.677Z"/><path fill="#a3c8d5" d="M502.09 184.051v2.136h1.861a5.284 5.284 0 0 1-.261-2.136Z"/><path fill="#e9eff5" d="M507.431 184.051h-1.2a3.317 3.317 0 0 1 .162 2.136h1.033Z"/><path fill="#ccdee6" d="M506.236 184.051h-2.544a5.284 5.284 0 0 0 .259 2.136h2.441a3.317 3.317 0 0 0-.156-2.136Z"/><path fill="#e9eff5" d="M505.508 184.051h.855v-4.273h-.592a3.464 3.464 0 0 0-.263 4.273Z"/><path fill="#ccdee6" d="M505.77 179.778h-2.612v4.273h2.35a3.464 3.464 0 0 1 .262-4.273Z"/><path fill="#64e1db" d="m514.908 181.914 1.832 3.112a2.206 2.206 0 0 1-.32 2.657 2.106 2.106 0 0 1-1.509.637 2.106 2.106 0 0 1-1.509-.637 2.206 2.206 0 0 1-.32-2.657Z"/><path fill="#e9eff5" d="M514.842 179.568c-.72-2.374-3.373-4.063-6.448-4.063h-1.509c2.375 2.087 6.4 1.638 7.957 4.063Z"/><path fill="#ccdee6" d="M506.884 175.505h-1.556c-1.116.984-1.561 2.339-.567 2.671 2.791 1.4 6.393 1.171 10.1 1.442l-.017-.049c-1.558-2.426-5.584-1.977-7.96-4.064Z"/><path fill="#a3c8d5" d="M504.761 178.176c-.993-.331-.549-1.686.567-2.671h-3.238a1.959 1.959 0 0 0-2.136 1.709v2.564h14.955c-.013-.055-.033-.107-.049-.16-3.706-.271-7.306-.047-10.1-1.442Z"/><path fill="#f1bda7" d="M527.193 193.664c-2.67 0-5.341 3.2-8.546 2.136-2.939-.98-7.216-1.07-8.731-3.959l-.844-.187a1.066 1.066 0 0 0-.988.287l-.653.654 11.75 5.341 8.546-3.206h2.136v-.654a10.084 10.084 0 0 0-2.67-.412Z"/><path fill="#ffd5bf" d="m523.755 188.643-4.984 2.078a1.067 1.067 0 0 0-.657.985v.382a1.067 1.067 0 0 0 .469.885 1.067 1.067 0 0 0 1 .106l3.876-1.55-3.876 1.55-1.465.586-8.2-1.823c1.516 2.889 5.792 2.979 8.731 3.959 3.2 1.068 5.875-2.136 8.546-2.136a10.084 10.084 0 0 1 2.671.414v-3.114c-2.36-.155-4.549-.692-6.111-2.322Z"/><path fill="#fbe3da" d="m527.726 189.391-3.206-1.068-.766.319c1.562 1.63 3.748 2.167 6.109 2.322v-1.573Z"/><path fill="#f1bda7" d="m519.576 192.543 3.878-1.015-3.878 1.549a1.066 1.066 0 0 1-.994-.106 1.066 1.066 0 0 1-.469-.882v-.385a.091.091 0 0 1 .005-.037 1.068 1.068 0 0 0 .512.8 1.068 1.068 0 0 0 .946.076Z"/><path fill="none" d="M558 102h32v32h-32z"/><g stroke-width=".5"><path fill="#618d3d" stroke="#618d3d" d="M581.067 109.567h.733v.733h-.733zM574.1 110.667h.733v.733h-.733zM567.133 109.567h.733v.733h-.733z"/><path fill="#323232" stroke="#323232" d="M584.743 124.773a36.176 36.176 0 0 0-2.594-.709l.251-1.445a.367.367 0 0 0-.282-.42q-.392-.087-.784-.166V118.3a1.1 1.1 0 0 0 .952-1.968 6.8 6.8 0 0 0 1.212-1.19A6.241 6.241 0 0 0 585 111.4a4.536 4.536 0 0 0-1.176-3.22 4.014 4.014 0 0 0-6.33.845l.644.35a3.118 3.118 0 0 1 2.828-1.642 3.183 3.183 0 0 1 2.328.955 3.822 3.822 0 0 1 .972 2.712 5.507 5.507 0 0 1-1.34 3.286 3.66 3.66 0 0 1-1.96 1.481 2.025 2.025 0 0 1-1.034-.538 6.77 6.77 0 0 1-1.331-1.5l-.612.4a7.237 7.237 0 0 0 1.657 1.8 1.1 1.1 0 0 0 .954 1.971v3.587a37.1 37.1 0 0 0-6.233-.593V119.4a1.1 1.1 0 0 0 .952-1.968 6.8 6.8 0 0 0 1.212-1.19 6.241 6.241 0 0 0 1.5-3.746 4.172 4.172 0 0 0-4.3-4.382l-.067.678a3.528 3.528 0 0 1 2.77 1.108 3.893 3.893 0 0 1 .866 2.6 5.507 5.507 0 0 1-1.34 3.286 3.66 3.66 0 0 1-1.96 1.481 3.66 3.66 0 0 1-1.96-1.481 5.507 5.507 0 0 1-1.34-3.286 3.893 3.893 0 0 1 .866-2.6 3.151 3.151 0 0 1 2.1-1.108l.067-.678a4.173 4.173 0 0 0-3.766 4.386 6.241 6.241 0 0 0 1.5 3.746 6.8 6.8 0 0 0 1.212 1.19 1.1 1.1 0 0 0 .952 1.968v1.9a37.1 37.1 0 0 0-6.233.592V118.3a1.1 1.1 0 0 0 .954-1.967 7.239 7.239 0 0 0 1.657-1.8l-.612-.4c-.791 1.2-1.881 2.035-2.365 2.035a3.66 3.66 0 0 1-1.96-1.481 5.507 5.507 0 0 1-1.34-3.286 3.821 3.821 0 0 1 .972-2.712 3.183 3.183 0 0 1 2.328-.955 3.118 3.118 0 0 1 2.828 1.642l.644-.35a4.014 4.014 0 0 0-6.33-.845A4.536 4.536 0 0 0 563 111.4a6.241 6.241 0 0 0 1.5 3.746 6.8 6.8 0 0 0 1.212 1.19 1.1 1.1 0 0 0 .952 1.968v3.728q-.392.079-.784.166a.367.367 0 0 0-.282.42l.251 1.446c-.87.2-1.741.442-2.594.709a.367.367 0 0 0-.141.617c.445.417.884.846 1.309 1.279-.194.622-.377 1.25-.544 1.869a.367.367 0 0 0 .464.445 32.585 32.585 0 0 1 4.272-1.031h.03c.218-.037.443-.073.667-.106a.367.367 0 0 0 .31-.406l-.171-1.449a40.2 40.2 0 0 1 8.174-.113l.064-.731a39.264 39.264 0 0 0-10.809.549c-.171-.968-.338-1.925-.5-2.852a36.285 36.285 0 0 1 15.234 0c-.175 1.011-.339 1.95-.5 2.852a36.553 36.553 0 0 0-3.492-.549v.731q.46.05.92.114l-.171 1.449a.367.367 0 0 0 .31.406c.2.029.391.06.584.092a32.587 32.587 0 0 1 4.385 1.05.367.367 0 0 0 .464-.445 47.324 47.324 0 0 0-.544-1.869c.427-.435.867-.865 1.309-1.279a.367.367 0 0 0-.141-.617Zm-3.043-7.14a.367.367 0 0 1-.367-.367v-.366h.367a.367.367 0 0 1 0 .733Zm-1.467 0a.367.367 0 0 1 0-.733h.367v.367a.367.367 0 0 1-.367.366Zm-12.467 0a.367.367 0 0 1-.367-.367v-.366h.367a.367.367 0 1 1 0 .733Zm-1.467 0a.367.367 0 1 1 0-.733h.367v.367a.367.367 0 0 1-.366.366Zm-1.2 8.681a43.187 43.187 0 0 0-1.028-1.024c.63-.185 1.266-.354 1.9-.5q.122.7.248 1.407a.367.367 0 0 0 .156.24c.447.3.89.616 1.324.94a33.46 33.46 0 0 0-2.939.716c.134-.47.276-.942.424-1.409a.367.367 0 0 0-.084-.37Zm3.75.856-.17.028c-.388-.3-.785-.6-1.188-.884q.615-.121 1.232-.22l.127 1.076Zm5.88-8.437a.367.367 0 0 1-.367-.367V118h.367a.367.367 0 1 1 0 .733Zm-1.467 0a.367.367 0 1 1 0-.733h.367v.367a.367.367 0 0 1-.362.366Zm6.006 7.361q.617.1 1.232.22c-.4.287-.8.582-1.188.884l-.17-.028q.068-.538.131-1.076Zm3.624.22a.367.367 0 0 0-.086.367c.149.47.291.942.424 1.409a33.547 33.547 0 0 0-2.939-.716c.433-.323.875-.637 1.322-.938a.367.367 0 0 0 .156-.24l.247-1.407c.636.15 1.273.318 1.9.5-.347.335-.691.678-1.027 1.024Z"/></g><path fill="none" d="M558 174h32v32h-32z"/><path fill="#313131" d="M575.298 201.012a9.9 9.9 0 0 1-2.12-.234.7.7 0 1 1 .3-1.367 7.257 7.257 0 0 0 6.2-1.3l-2.943-2.943-.93.93a2.186 2.186 0 0 1-3.089 0l-4.829-4.83a2.186 2.186 0 0 1 0-3.089l.93-.93-2.944-2.944c-2.556 3.152-1.724 7.066 2.014 10.8a33.952 33.952 0 0 0 5.6 4.315.7.7 0 0 1-.6 1.266 34.746 34.746 0 0 1-5.99-4.591c-4.514-4.514-5.212-9.634-1.545-13.3a.72.72 0 0 1 .99 0l3.956 3.963a.7.7 0 0 1 0 .99l-1.421 1.42a.785.785 0 0 0 0 1.109l4.829 4.829a.8.8 0 0 0 1.109 0l1.425-1.425a.7.7 0 0 1 .99 0l3.959 3.959a.7.7 0 0 1 0 .99 8.2 8.2 0 0 1-5.891 2.382Z"/><path fill="#323232" d="M574.501 192.987a.7.7 0 0 1-.7-.7v-1.546a3.763 3.763 0 0 1-2.8-3.645v-4.316a3.8 3.8 0 0 1 3.791-3.791h6.415a3.8 3.8 0 0 1 3.791 3.791v4.315a3.8 3.8 0 0 1-3.791 3.791h-3.836l-2.433 1.947a.7.7 0 0 1-.437.154Zm.292-12.6a2.4 2.4 0 0 0-2.392 2.392v4.315a2.375 2.375 0 0 0 2.166 2.366.7.7 0 0 1 .634.7v.673l1.487-1.19a.7.7 0 0 1 .437-.153h4.082a2.4 2.4 0 0 0 2.392-2.392v-4.318a2.4 2.4 0 0 0-2.392-2.392Z"/><g fill="#618d3d" transform="translate(574.501 183.888)"><circle cx=".7" cy=".7" r=".7" transform="translate(2.8)"/><circle cx=".7" cy=".7" r=".7" transform="translate(5.599)"/><circle cx=".7" cy=".7" r=".7"/></g></svg>