<svg xmlns="http://www.w3.org/2000/svg" width="173.751" height="141.444" viewBox="0 0 173.751 141.444"><path fill="#e6e7e8" d="M35.634 17.91c0-.828-1.842-1.527-4.368-1.752-.225-2.525-.924-4.367-1.751-4.367s-1.527 1.842-1.752 4.367c-2.526.225-4.368.924-4.368 1.752s1.842 1.526 4.368 1.751c.225 2.525.924 4.368 1.752 4.368s1.526-1.842 1.752-4.368c2.526-.225 4.368-.924 4.368-1.751Zm3.873-7.149c.179-.37-.491-1.081-1.569-1.728.446-1.175.534-2.147.165-2.327s-1.08.491-1.727 1.569c-1.175-.446-2.148-.533-2.328-.164s.491 1.08 1.569 1.727c-.447 1.176-.534 2.148-.164 2.328s1.08-.491 1.727-1.569c1.175.443 2.147.531 2.327.164Zm1.355-6.4c.294-.1.315-.842.084-1.766.868-.391 1.436-.864 1.334-1.158s-.841-.315-1.765-.085c-.39-.868-.864-1.436-1.159-1.334s-.315.841-.084 1.766c-.869.39-1.437.864-1.335 1.158s.841.315 1.765.084c.393.869.866 1.436 1.16 1.335Zm-22.844 92.1c-.529-1.213-3.676-1.062-7.522.224-1.944-3.559-4.146-5.813-5.359-5.284s-1.061 3.677.224 7.522c-3.559 1.944-5.813 4.146-5.284 5.359s3.676 1.061 7.522-.224c1.944 3.559 4.146 5.813 5.36 5.284s1.06-3.676-.224-7.522c3.559-1.952 5.813-4.153 5.283-5.367Zm155.728-15.6c-.14-1.191-2.908-1.891-6.582-1.793-.745-3.6-2.059-6.135-3.251-6s-1.891 2.907-1.793 6.581c-3.6.745-6.136 2.059-6 3.252s2.908 1.889 6.582 1.793c.746 3.6 2.06 6.135 3.252 6s1.891-2.907 1.793-6.582c3.6-.742 6.136-2.051 5.999-3.251Zm-30.765 37.689a11.063 11.063 0 0 1-9.694 12.282c-21.975 2.588-64.94 4.64-87.9 10.351-5.931 1.475-12.373-3.583-12.281-9.692.6-39.886-3.676-62.383-10.352-87.9-1.546-5.911 3.625-11.566 9.694-12.281l87.9-10.351a11.063 11.063 0 0 1 12.282 9.693s2.41 31.719 3.654 42.285c1.343 11.411 6.7 45.618 6.7 45.618Z"/><path fill="#fff" d="M132.699 112.153a9.173 9.173 0 0 1-8.036 10.183c-18.22 2.145-53.84 3.847-72.877 8.581-4.917 1.224-10.258-2.97-10.181-8.037.495-33.066-3.048-51.719-8.583-72.878-1.282-4.9 3.006-9.589 8.037-10.182l72.876-8.582a9.173 9.173 0 0 1 10.183 8.037s2 26.3 3.029 35.056c1.114 9.461 5.552 37.822 5.552 37.822Z"/><path fill="#e6e7e8" fill-rule="evenodd" d="M84.12 102.761a8.687 8.687 0 0 0 4.064 6.566c5.455 3.12 13.028 2.68 17.385-2.311.331-.438.669-.807 1.069-1.276 4.006-4.766 5.974-13.3 4.21-20.554l-.949-3.165c-1.19.733-1.938 1.452-3.487 2.313l-3.874 2.13c-4.787 2.67-15.479 7.076-17.5 11.711a10.36 10.36 0 0 0-.918 4.586Z"/><path fill="#e6e7e8" fill-rule="evenodd" d="M71.853 78.176c.69 7.667 3.623 15.613 6.023 22.571.584 1.56 6.634 17.026 7.875 19.321.351.618-.045.316.486.485-.61-1.052-2.672-9.967-2.973-11.7-2.316-12.6-4.935-27.724.032-39.9 1.884-4.527 6.367-8.928 11.646-9.4l-.013-.143c-9.9.891-22.167 2.572-23.057 14.04a31.431 31.431 0 0 0-.019 4.721Z"/><path fill="#e6e7e8" fill-rule="evenodd" d="M67.279 55.283a25.622 25.622 0 0 0 .512 4.046 2.071 2.071 0 0 1 .1 1.147c.565.551 1.706 4.179 7.081 3.117a13.47 13.47 0 0 0 4.543-1.275c3.16-1.849 3.493-3.9 3.052-7.16-.518-3.275-2.7-4.5-3.721-7.658a9.36 9.36 0 0 1-.378-2.541c-.1-1.146.154-1.58.071-2.511a4.772 4.772 0 0 0-2.876 4.183c-.934-.518-2.133-4-3.559-4.23-.548 1.3-.4 3-.224 4.907-.678-.132-1.282-1.088-2.236-1.845a3.89 3.89 0 0 0-3.367-1.285 8.74 8.74 0 0 1 .995 5.327v5.778ZM82.091 88.45l9.461-6.581c11.592-6.726 15.58-1.837 17.532-1.506a13.143 13.143 0 0 0-4.224-3.4c-7.4-3.426-16.111.849-20.433 7.064a18.7 18.7 0 0 0-2.336 4.423Z"/><path fill="#e6e7e8" fill-rule="evenodd" d="M67.895 60.476a2.053 2.053 0 0 0-.1-1.147 25.618 25.618 0 0 1-.512-4.046 16.172 16.172 0 0 0-11.42-.394l-3.246 1.713c5.867-.527 10.6 1.094 15.282 3.874Z"/></svg>