<svg xmlns="http://www.w3.org/2000/svg" width="57" height="57" fill="none" viewBox="0 0 57 57"><rect width="56" height="56" x=".5" y=".5" fill="#199100" stroke="#199100" rx="28"/><path fill="#fff" stroke="#fff" stroke-linecap="round" stroke-linejoin="round" stroke-width="2" d="m28.5 41-5.063-5h-3.375a5.095 5.095 0 0 1-3.58-1.465A4.969 4.969 0 0 1 15 31V21c0-1.326.533-2.598 1.483-3.535A5.095 5.095 0 0 1 20.063 16h16.875c1.342 0 2.63.527 3.58 1.465A4.969 4.969 0 0 1 42 21v10a4.969 4.969 0 0 1-1.483 3.535A5.095 5.095 0 0 1 36.937 36h-3.374L28.5 41Z"/><path stroke="#199100" stroke-linecap="round" stroke-linejoin="round" stroke-width="2" d="M22 23h13M22 30h10"/></svg>