<svg xmlns="http://www.w3.org/2000/svg" id="smile" width="20" height="20" viewBox="0 0 20 20"><defs><style>.cls-2{fill:#3e4347}.cls-4{fill:#5a5f63}</style></defs><circle id="Ellipse_29" cx="10" cy="10" r="10" fill="#ffd93b"/><path id="Path_23778" d="M103.251 289.279a6.393 6.393 0 0 1-6.2-4.816.416.416 0 1 1 .807-.206 5.561 5.561 0 0 0 10.777 0 .417.417 0 1 1 .808.206 6.392 6.392 0 0 1-6.192 4.816z" class="cls-2" transform="translate(-93.251 -272.852)"/><path id="Path_23779" fill="#f4c534" d="M74.5 64.5a10 10 0 0 1-17.78 6.283A10 10 0 0 0 70.783 56.72 9.989 9.989 0 0 1 74.5 64.5z" transform="translate(-54.504 -54.504)"/><ellipse id="Ellipse_30" cx="1.532" cy="1.821" class="cls-2" rx="1.532" ry="1.821" transform="translate(5.238 6.784)"/><path id="Path_23780" d="M177.752 195.334a.33.33 0 0 1-.441-.1.286.286 0 1 1 .428-.35.331.331 0 0 1 .013.45z" class="cls-4" transform="translate(-170.29 -187.12)"/><ellipse id="Ellipse_31" cx="1.532" cy="1.821" class="cls-2" rx="1.532" ry="1.821" transform="translate(11.699 6.784)"/><path id="Path_23781" d="M343.112 195.334a.33.33 0 0 1-.441-.1.286.286 0 1 1 .428-.35.331.331 0 0 1 .013.45z" class="cls-4" transform="translate(-329.191 -187.12)"/></svg>